<svg xmlns="http://www.w3.org/2000/svg" width="16.59" height="16.59" viewBox="0 0 16.59 16.59">
  <g id="Groupe_17" data-name="Groupe 17" transform="translate(-94 -365.202)">
    <path id="Tracé_16" data-name="Tracé 16" d="M8.295,0A8.295,8.295,0,1,1,0,8.295,8.295,8.295,0,0,1,8.295,0Z" transform="translate(94 365.202)" fill="#3d3d3d"/>
    <path id="Tracé_17" data-name="Tracé 17" d="M1.231,0A1.231,1.231,0,1,1,0,1.231,1.231,1.231,0,0,1,1.231,0Z" transform="translate(97.313 372.266)" fill="#fff"/>
    <path id="Tracé_18" data-name="Tracé 18" d="M1.231,0A1.231,1.231,0,1,1,0,1.231,1.231,1.231,0,0,1,1.231,0Z" transform="translate(101.064 372.266)" fill="#fff"/>
    <path id="Tracé_19" data-name="Tracé 19" d="M1.231,0A1.231,1.231,0,1,1,0,1.231,1.231,1.231,0,0,1,1.231,0Z" transform="translate(104.815 372.266)" fill="#fff"/>
  </g>
</svg>
