<?xml version="1.0" encoding="utf-8"?>
<!-- Generator: Adobe Illustrator 26.5.0, SVG Export Plug-In . SVG Version: 6.00 Build 0)  -->
<svg version="1.1" id="Calque_1" xmlns="http://www.w3.org/2000/svg" xmlns:xlink="http://www.w3.org/1999/xlink" x="0px" y="0px"
	 viewBox="0 0 1125 2436" style="enable-background:new 0 0 1125 2436;" xml:space="preserve">
<style type="text/css">
	.st0{fill:#EFDFD0;}
	.st1{fill:#3D3D3D;}
	.st2{fill:#D2A665;}
	.st3{fill:#CB614B;}
	.st4{fill:#3F3F33;}
	.st5{fill:#708E86;}
</style>
<g id="FondEcran1">
	<rect class="st0" width="1125" height="2435.7"/>
	<path id="Tracé_3" class="st1" d="M1125,209.8c-80.6,29.1-346.1,146.7-264.6,411.1c90,291.9,150.4,568.3,264.6,616.3"/>
	<path id="Tracé_5" class="st2" d="M1125,1972.6c-8.9-12.4-16.5-21.3-22.1-25c-36.6-24.8-83.6-61.4-104.5-82.3
		c-20.9-20.9-86.2-62.8-86.2-62.8s-18.3-17.3-20.9,14.9s6.7,145.9,24.1,190.6s9.9,52.9,13.9,65.1c4,12.2,83,144.8,98.1,157.6
		c15.1,12.8,67.3,66.3,84.7,70.4c2.6,0.6,7,2.6,12.8,5.5"/>
	<path id="Tracé_6" class="st2" d="M1125,2397.9c-52.3-38.2-117.3-85.7-132.8-92.7c-19.2-8.6-54.2-31.8-63.5-31.8
		s-76.7-11.3-95.9-4s-25.8,0.6-21.2,17.2c4.1,14.7,25.4,95.6,92,149.3H1125"/>
	<path id="Tracé_7" class="st3" d="M1125,649.1c-56.5-19.1-161.4-61.2-161.4-128.3c0-70.9,11.6-144.2,80.1-179v0
		c0,0,38.9-18.8,81.3-31.3"/>
	<path id="Tracé_8" class="st4" d="M0,2136.7c28.5-0.4,57.1,1,85.5,4.1c33.5,3,103.9,11.7,132.3,25.9
		c28.4,14.2,87.2,36.6,118.6,69.6c31.4,33,55.3,63.5,56.3,97.5s4,71.6,0,86.3c-1.5,5.5-2.1,11.3-2.7,15.9H0"/>
	<path id="Tracé_9" class="st3" d="M0,1098.3c15.7-15.5,37.1-33.2,70.6-57.2c71.3-51.3,71.3-243.6,65.8-271.1
		c-5.5-27.5-32.9-65.9-47.5-100.7s0-51.3-36.6-65.9c-16.8-6.7-35.9-15.8-52.3-23.6"/>
	<path id="Tracé_10" class="st5" d="M0,1037c17.5-23.3,36-45.7,36-45.7s12.2-22.1,24.4,7.8c12.2,29.9,37.7,141.1,34.6,189
		s6.6,53.4,6.4,66.3c-0.2,12.8-35.4,163.1-45.9,179.9c-9.7,15.5-39,73.4-55.6,89.5"/>
	<path id="Tracé_11" class="st5" d="M0,1625.5c30.2-40.9,59.4-79.7,68.9-88.2c15.7-14,42.1-46.7,50.9-49.5s69.7-34,90.2-32.8
		s24.8-7.2,25.4,10c0.6,17.2,5.8,121.2-63.2,196.6S38.1,1775,7.2,1782.8c-2.3,0.6-4.8,1.2-7.2,1.9"/>
	<path class="st2" d="M1125,0H903.6c0,0,118.6,86,221.4,84.5"/>
	<path id="Tracé_8-2" class="st4" d="M0,86.3c28.5,0.1,57.1-0.3,85.5-1.2c33.5-0.9,103.9-3.3,132.3-7.4
		c17.5-2.5,46.4-5.9,73.4-10.3s53.2-16.5,74.3-34.7L387,14.3c3-3,2.6-13,3-14.3H0"/>
</g>
</svg>
